<?xml version="1.0" encoding="utf-8"?>
<!-- Generator: Adobe Illustrator 18.1.0, SVG Export Plug-In . SVG Version: 6.00 Build 0)  -->
<svg version="1.1" id="Слой_1" xmlns="http://www.w3.org/2000/svg" xmlns:xlink="http://www.w3.org/1999/xlink" x="0px" y="0px"
	 viewBox="0 0 1000 1000" enable-background="new 0 0 1000 1000" xml:space="preserve">
<g>
	<path fill="#27A745" d="M855.3,146.7c-195.9-195.9-512.7-195.9-708.5,0c-195.2,195.2-195.9,512.7,0,708.5s512.7,195.9,708.5,0
		S1050.4,341.9,855.3,146.7z M537.8,872.9h-73.5c-26.9,0-47.4-21.9-46.7-48.1c2.1-79.9,5.7-233.3-1.4-240.4
		c-7.1-7.1-161.2-4.2-241.8-1.4c-26.2,0.7-47.4-20.5-48.1-46.7l0.7-72.8c0-26.9,21.9-47.4,48.1-46.7c79.9,2.1,231.9,7.1,241.1-2.1
		c9.2-9.2,4.9-160.5,2.1-241.1c-0.7-26.2,19.8-48.1,46.7-48.1h73.5c26.9,0,47.4,21.9,46.7,48.1c-2.1,79.9-5.7,234.8,0.7,241.1
		c6.4,6.4,160.5,3.5,240.4,1.4c26.2-0.7,47.4,20.5,48.1,46.7l0,73.5c0,26.9-21.9,47.4-48.1,46.7c-79.9-2.1-233.3-5.7-240.4,1.4
		c-7.1,7.1-3.5,160.5-1.4,240.4C585.1,852.4,563.9,873.6,537.8,872.9z"/>
</g>
</svg>
