<?xml version="1.0" encoding="utf-8"?>
<!-- Generator: Adobe Illustrator 18.1.0, SVG Export Plug-In . SVG Version: 6.00 Build 0)  -->
<svg version="1.1" id="Слой_1" xmlns="http://www.w3.org/2000/svg" xmlns:xlink="http://www.w3.org/1999/xlink" x="0px" y="0px"
	 viewBox="0 0 100 100" enable-background="new 0 0 100 100" xml:space="preserve">
<g>
	<path fill="#DC3545" d="M50.1,0C22.4,0,0,22.4,0,50.1c0,27.6,22.4,50.1,50.1,50.1c27.7,0,50.1-22.4,50.1-50.1
		C100.2,22.4,77.7,0,50.1,0z M79,73.8l-5.2,5.2c-1.9,1.9-4.9,1.8-6.7-0.1C61.6,73.1,51,62,50,62C49,62,38.3,73.1,32.8,79
		c-1.8,1.9-4.8,1.9-6.7,0.1L21,73.9c-1.9-1.9-1.8-4.9,0.1-6.7C26.9,61.7,38,51.3,38,50c0-1.3-11-11.7-16.9-17.2
		c-1.9-1.8-2-4.8-0.1-6.7l5.2-5.2c1.9-1.9,4.9-1.8,6.7,0.1C38.4,26.8,49.1,38,50,38c0.9,0,11.6-11.1,17.1-16.9
		c1.8-1.9,4.8-1.9,6.7-0.1l5.2,5.2c1.9,1.9,1.8,4.9-0.1,6.7C73.1,38.4,62,49,62,50c0,1,11.1,11.6,16.9,17.1C80.9,69,80.9,72,79,73.8
		z"/>
</g>
</svg>
