<?xml version="1.0" encoding="utf-8"?>
<!-- Generator: Adobe Illustrator 18.1.0, SVG Export Plug-In . SVG Version: 6.00 Build 0)  -->
<svg version="1.1" id="Слой_1" xmlns="http://www.w3.org/2000/svg" xmlns:xlink="http://www.w3.org/1999/xlink" x="0px" y="0px"
	 viewBox="0 0 64 64" enable-background="new 0 0 64 64" xml:space="preserve">
<g>
	<path fill="#27A745" d="M4.3,48.1c8.9,15.3,28.5,20.6,43.8,11.8C63.5,51,68.7,31.4,59.9,16C51,0.7,31.4-4.6,16,4.3
		C0.7,13.2-4.6,32.8,4.3,48.1z M13,30.1c2.1-2.1,5.5-2.1,7.7,0l6.1,6.1V13.6c0-3,2.4-5.4,5.4-5.4c3,0,5.4,2.4,5.4,5.4v22.5l6.1-6.1
		c2.1-2.1,5.5-2.1,7.6,0c2.1,2.1,2.1,5.5,0,7.6L35.9,53c0,0,0,0,0,0c-2.1,2.1-5.5,2.1-7.6,0L13,37.8C10.9,35.7,10.9,32.2,13,30.1z"
		/>
</g>
</svg>
