<?xml version="1.0" encoding="utf-8"?>
<!-- Generator: Adobe Illustrator 18.1.0, SVG Export Plug-In . SVG Version: 6.00 Build 0)  -->
<svg version="1.1" id="Capa_1" xmlns="http://www.w3.org/2000/svg" xmlns:xlink="http://www.w3.org/1999/xlink" x="0px" y="0px"
	 viewBox="14.8 -22.7 24.6 39.4" enable-background="new 14.8 -22.7 24.6 39.4" xml:space="preserve">
<path d="M36.1-9.3v-2.9c0,0,0,0,0-0.1c0-0.1,0-0.2-0.1-0.3l-4.8-5.5c0,0,0,0,0,0c0,0-0.1-0.1-0.1-0.1c0,0,0,0,0,0c0,0-0.1,0-0.1,0
	c0,0,0,0,0,0c0,0-0.1,0-0.1,0H19c-0.5,0-1,0.4-1,1v8l1,0v-8h11.4v5c0,0.3,0.2,0.5,0.5,0.5h4.3l0,2.5L36.1-9.3z M35.2-9.3l1,0V5.7
	c0,0.5-0.4,1-1,1H19c-0.5,0-1-0.4-1-1V-9.3l1,0V5.5h16.2V0.7"/>
</svg>
