<?xml version="1.0" encoding="utf-8"?>
<!-- Generator: Adobe Illustrator 18.1.0, SVG Export Plug-In . SVG Version: 6.00 Build 0)  -->
<svg version="1.1" id="Слой_1" xmlns="http://www.w3.org/2000/svg" xmlns:xlink="http://www.w3.org/1999/xlink" x="0px" y="0px"
	 viewBox="0 0 30 24.4" enable-background="new 0 0 30 24.4" xml:space="preserve">
<path d="M0,3.8c0.5,0,1,0,1.6,0c0.2,0,0.4-0.1,0.5-0.3c0.5-1.1,1.1-2.2,1.6-3.2C3.7,0.1,3.8,0,4,0c2.3,0,4.7,0,7,0
	c0.2,0,0.3,0.1,0.4,0.2c0.5,1.1,1.1,2.1,1.6,3.2c0.1,0.3,0.3,0.3,0.5,0.3c4.1,0,8.2,0,12.4,0c0.1,0,0.2,0,0.4,0c0,1.2,0,2.5,0,3.7
	c1.3,0,2.5,0,3.8,0c-1.3,5.6-2.5,11.3-3.8,16.9c-8.8,0-17.5,0-26.2,0C0,17.5,0,10.6,0,3.8z M24.9,22.5c1-4.4,2-8.7,3-13.1
	c-7,0-14,0-21,0C5.5,13.7,4.1,18,2.6,22.3C10.1,22.4,17.5,22.4,24.9,22.5z M1.9,18.4C1.9,18.4,1.9,18.4,1.9,18.4
	c1.3-3.6,2.5-7.3,3.7-10.9c6.3,0,12.5,0,18.7,0c0-0.6,0-1.2,0-1.9c-0.1,0-0.3,0-0.4,0c-3.9,0-7.8,0-11.7,0c-0.2,0-0.4-0.1-0.5-0.3
	c-0.6-1.1-1.3-2.1-1.9-3.2C9.8,2,9.7,1.9,9.4,1.9c-1.4,0-2.9,0-4.3,0C5,1.9,4.8,1.9,4.7,2.1C4.2,3.2,3.7,4.3,3.1,5.4
	C3,5.6,2.9,5.6,2.7,5.6c-0.3,0-0.6,0-0.9,0C1.9,9.9,1.9,14.1,1.9,18.4z"/>
<g>
	<path fill="#BAAB1E" d="M1.9,18.4c0-4.2,0-8.5,0-12.8c0.3,0,0.6,0,0.9,0c0.2,0,0.3-0.1,0.4-0.2c0.5-1.1,1.1-2.2,1.6-3.3
		C4.8,1.9,5,1.9,5.2,1.9c1.4,0,2.9,0,4.3,0c0.2,0,0.4,0.1,0.5,0.3c0.6,1.1,1.3,2.1,1.9,3.2c0.1,0.2,0.3,0.3,0.5,0.3
		c3.9,0,7.8,0,11.7,0c0.1,0,0.2,0,0.4,0c0,0.6,0,1.2,0,1.9c-6.2,0-12.5,0-18.7,0C4.4,11.1,3.2,14.8,1.9,18.4
		C1.9,18.4,1.9,18.4,1.9,18.4z"/>
</g>
<g>
	<path fill="#FCEE21" d="M24.9,22.5c-7.4-0.1-14.8-0.1-22.3-0.2C4.1,18,5.5,13.7,6.9,9.4c7,0,14,0,21,0
		C26.9,13.8,25.9,18.1,24.9,22.5z"/>
</g>
</svg>
