<?xml version="1.0" encoding="utf-8"?>
<!-- Generator: Adobe Illustrator 18.1.0, SVG Export Plug-In . SVG Version: 6.00 Build 0)  -->
<svg version="1.1" id="Слой_1" xmlns="http://www.w3.org/2000/svg" xmlns:xlink="http://www.w3.org/1999/xlink" x="0px" y="0px"
	 viewBox="0 0 100 100" enable-background="new 0 0 100 100" xml:space="preserve">
<g>
	<path fill="#FCC00E" d="M50,0.1c-27.6,0-50,22.4-50,50c0,27.6,22.4,50,50,50c27.6,0,50-22.4,50-50C100,22.5,77.6,0.1,50,0.1z
		 M81.1,30.8l-5.9,5.9l-12-12l0,0l-2.8,2.8l11.8,11.8L39.5,72L27.8,60.3l-3,3l0,0l12,12l-2.9,2.9l-0.1-0.1c-0.3,0.5-0.9,0.9-1.5,1.1
		l-11.2,2.5c-0.2,0-0.3,0.1-0.5,0.1c-0.6,0-1.2-0.2-1.6-0.7c-0.6-0.6-0.8-1.4-0.6-2.1l2.5-11.2c0.1-0.6,0.5-1.2,1.1-1.5l-0.1-0.1
		l2.9-2.9l3-3l0,0l32.7-32.7l0,0l2.8-2.8l5.9-5.9c0.7-0.7,1.8-0.7,2.5,0l9.5,9.5C81.8,29,81.8,30.1,81.1,30.8z"/>
</g>
</svg>
