<?xml version="1.0" encoding="utf-8"?>
<!-- Generator: Adobe Illustrator 18.1.0, SVG Export Plug-In . SVG Version: 6.00 Build 0)  -->
<svg version="1.1" id="Слой_1" xmlns="http://www.w3.org/2000/svg" xmlns:xlink="http://www.w3.org/1999/xlink" x="0px" y="0px"
	 viewBox="0 0 64 64" enable-background="new 0 0 64 64" xml:space="preserve">
<g>
	<path fill="#27A745" d="M59.9,16.1C51,0.7,31.4-4.6,16.1,4.3C0.7,13.2-4.6,32.8,4.3,48.1c8.9,15.3,28.5,20.6,43.8,11.7
		C63.5,51,68.7,31.4,59.9,16.1z M51.2,34.1c-2.1,2.1-5.5,2.1-7.7,0L37.5,28v22.5c0,3-2.4,5.4-5.4,5.4c-3,0-5.4-2.4-5.4-5.4V28
		l-6.1,6.1c-2.1,2.1-5.5,2.1-7.6,0c-2.1-2.1-2.1-5.5,0-7.6l15.3-15.3c0,0,0,0,0,0c2.1-2.1,5.5-2.1,7.6,0l15.3,15.3
		C53.3,28.5,53.3,32,51.2,34.1z"/>
</g>
</svg>
